<?xml version="1.0" encoding="UTF-8"?><svg id="Layer_2" xmlns="http://www.w3.org/2000/svg" xmlns:xlink="http://www.w3.org/1999/xlink" viewBox="0 0 750 745"><defs><style>.cls-1,.cls-2,.cls-3,.cls-4,.cls-5,.cls-6,.cls-7,.cls-8,.cls-9,.cls-10,.cls-11,.cls-12{stroke-miterlimit:10;}.cls-1,.cls-5,.cls-7,.cls-9,.cls-10,.cls-11,.cls-12{stroke:#000;}.cls-1,.cls-9,.cls-10{fill:none;}.cls-1,.cls-11,.cls-12{stroke-width:3px;}.cls-2{stroke:url(#New_Gradient_Swatch_1-5);}.cls-2,.cls-3,.cls-4{fill:#231f20;}.cls-3{stroke:url(#New_Gradient_Swatch_1-4);}.cls-4{stroke:url(#New_Gradient_Swatch_1-3);}.cls-13{fill:#f3f32c;}.cls-14,.cls-12{fill:#e4e2ed;}.cls-15{fill:#b73631;}.cls-16{fill:#b0ffdd;}.cls-17{fill:#ded8e8;}.cls-18{fill:#1a1413;}.cls-19{fill:#564f9a;}.cls-5,.cls-7{fill:#f2ff4d;}.cls-5,.cls-9{stroke-width:2px;}.cls-6{fill:#074c07;stroke:#030303;}.cls-6,.cls-10{stroke-width:4px;}.cls-8{fill:url(#New_Gradient_Swatch_1);stroke:url(#New_Gradient_Swatch_1-2);}.cls-20{fill:#9274ff;opacity:0;}.cls-11{fill:#42414e;}.cls-21{fill:url(#Orange__Yellow);}</style><linearGradient id="Orange__Yellow" x1="338.28" y1="333.62" x2="399.14" y2="333.62" gradientTransform="matrix(1, 0, 0, 1, 0, 0)" gradientUnits="userSpaceOnUse"><stop offset="0" stop-color="#ffe73b"/><stop offset=".04" stop-color="#fbda2d"/><stop offset=".12" stop-color="#f5c91b"/><stop offset=".2" stop-color="#f2be0f"/><stop offset=".28" stop-color="#f1bb0c"/><stop offset=".67" stop-color="#e7843f"/><stop offset=".89" stop-color="#e1683c"/><stop offset="1" stop-color="#dd3e3a"/></linearGradient><linearGradient id="New_Gradient_Swatch_1" x1="239.35" y1="301.65" x2="507.56" y2="301.65" gradientTransform="translate(84.12 -133.84) rotate(11.18)" gradientUnits="userSpaceOnUse"><stop offset="0" stop-color="#147ab7"/><stop offset=".07" stop-color="#39c9b3"/><stop offset=".11" stop-color="#66d0b3"/><stop offset=".12" stop-color="#46ccaf"/><stop offset=".16" stop-color="#95d6ba"/><stop offset=".2" stop-color="#b2d6aa"/><stop offset=".25" stop-color="#cad580"/><stop offset=".3" stop-color="#ddd13e"/><stop offset=".34" stop-color="#decf3a"/><stop offset=".38" stop-color="#e39f1a"/><stop offset=".42" stop-color="#e38011"/><stop offset=".46" stop-color="#e14f0c"/><stop offset=".5" stop-color="#e30d0c"/><stop offset=".53" stop-color="#cc310d"/><stop offset=".56" stop-color="#e78212"/><stop offset=".59" stop-color="#e88f15"/><stop offset=".61" stop-color="#e6aa2d"/><stop offset=".64" stop-color="#e3c541"/><stop offset=".67" stop-color="#e4cf46"/><stop offset=".71" stop-color="#e3d654"/><stop offset=".74" stop-color="#d6dc92"/><stop offset=".78" stop-color="#b8dca5"/><stop offset=".81" stop-color="#9edaa7"/><stop offset=".84" stop-color="#65dbbe"/><stop offset=".86" stop-color="#65dbbe"/><stop offset=".9" stop-color="#50d6c5"/><stop offset=".93" stop-color="#31ccc9"/><stop offset=".97" stop-color="#14a3c8"/><stop offset="1" stop-color="#147ab7"/></linearGradient><linearGradient id="New_Gradient_Swatch_1-2" x1="238.85" x2="508.07" xlink:href="#New_Gradient_Swatch_1"/><linearGradient id="New_Gradient_Swatch_1-3" x1="479.41" y1="271.94" x2="483.68" y2="271.94" xlink:href="#New_Gradient_Swatch_1"/><linearGradient id="New_Gradient_Swatch_1-4" x1="485.8" y1="275.45" x2="490.1" y2="275.45" xlink:href="#New_Gradient_Swatch_1"/><linearGradient id="New_Gradient_Swatch_1-5" x1="472.81" y1="269.47" x2="476.99" y2="269.47" xlink:href="#New_Gradient_Swatch_1"/></defs><g id="background-layers"><rect class="cls-16" width="750" height="745"/></g><g id="background_-purple"><rect class="cls-20" x="0" width="750" height="745"/></g><g id="phantom-ted"><path class="cls-19" d="M371.51,387.59c17.4-.03,56.83-2.66,109.77-21.81,0,0,43.81-21.88,56.68-57.34,0,0-8.05-59.46-18.51-88.38,0,0,58.69-14.48,60.95-18.03,0,0,3.6-10.8,1.96-14.89,0,0-13.64-41.62-31.25-55.48,0,0-6.5-6.27-18.33-6.59,0,0-28.52,2.52-56.66,31.81,0,0-15.79-20.49-39.45-27.11,0,0-41.27-14.78-102.07,.65,0,0-10.67-34.72-31.83-47.92,0,0-17.46-3.54-37.27,8.04,0,0-21.46,12.23-28.85,23.17,0,0-10.84,8.9-11.17,29.81,0,0,19.48,18.16,51.06,28.9,0,0-10.15,17.96-10.15,22.93,0,0-1.56,8.95-1.04,12.43,0,0-10.9,34.46-15.05,75.17,0,0,39.45,60.88,103.65,99.79,5.25,3.18,11.35,4.84,17.56,4.83"/><path class="cls-10" d="M371.51,387.59c17.4-.03,56.83-2.66,109.77-21.81,0,0,43.81-21.88,56.68-57.34,0,0-8.05-59.46-18.51-88.38,0,0,58.69-14.48,60.95-18.03,0,0,3.6-10.8,1.96-14.89,0,0-13.64-41.62-31.25-55.48,0,0-6.5-6.27-18.33-6.59,0,0-28.52,2.52-56.66,31.81,0,0-15.79-20.49-39.45-27.11,0,0-41.27-14.78-102.07,.65,0,0-10.67-34.72-31.83-47.92,0,0-17.46-3.54-37.27,8.04,0,0-21.46,12.23-28.85,23.17,0,0-10.84,8.9-11.17,29.81,0,0,19.48,18.16,51.06,28.9,0,0-10.15,17.96-10.15,22.93,0,0-1.56,8.95-1.04,12.43,0,0-10.9,34.46-15.05,75.17,0,0,39.45,60.88,103.65,99.79,5.25,3.18,11.35,4.84,17.56,4.83Z"/><path class="cls-19" d="M218.76,521.19s-5.64-31.76-25.78-57.89c0,0-20.14-30.55-67.96-17.29,0,0-57.14,26.87-62.98,142.12-.09,1.74-.09,3.49,.15,5.22,.79,5.66,3.77,18.94,12.78,33.07,0,0,11.89,17.07,41.31,30.2,0,0,35.85,4.29,58.95-20.15,0,0,20.23-6.53,31.5-6.16,0,0,23.05-1.9,30.82-4.48,0,0,51.73-9.03,68.77-27.04,0,0-17.03-21.78-22.86-65.81,0,0-12.17-25.8-36.38-32.12l-33.34,2.1s3.86,11.44,5.01,18.22"/><path class="cls-1" d="M218.76,521.19s-5.64-31.76-25.78-57.89c0,0-20.14-30.55-67.96-17.29,0,0-57.14,26.87-62.98,142.12-.09,1.74-.09,3.49,.15,5.22,.79,5.66,3.77,18.94,12.78,33.07,0,0,11.89,17.07,41.31,30.2,0,0,35.85,4.29,58.95-20.15,0,0,20.23-6.53,31.5-6.16,0,0,23.05-1.9,30.82-4.48,0,0,51.73-9.03,68.77-27.04,0,0-17.03-21.78-22.86-65.81,0,0-12.17-25.8-36.38-32.12l-33.34,2.1s3.86,11.44,5.01,18.22Z"/><path class="cls-17" d="M281.89,530.03s-7.69-60.53,44.47-93.26c0,0,22.42-14.15,42.68-6.64,0,0,35.29,5.07,52.54,79.26,0,0-11.35,15.4-18.76,40.51,0,0-22.01,10.58-32.15,57.8,0,0-25.11,11.37-63.8-8.2,0,0-17.23-22.6-23.42-66.61l-1.55-2.86Z"/><path class="cls-9" d="M281.89,530.03s-7.69-60.53,44.47-93.26c0,0,22.42-14.15,42.68-6.64,0,0,35.29,5.07,52.54,79.26,0,0-11.35,15.4-18.76,40.51,0,0-22.01,10.58-32.15,57.8,0,0-25.11,11.37-63.8-8.2,0,0-17.23-22.6-23.42-66.61l-1.55-2.86Z"/><path class="cls-19" d="M400.73,588.77s-3-26.42,3.89-43.98c.2-.5,.38-.99,.53-1.51,1.41-4.65,10.48-32.09,34.54-56.36,.34-.34,.69-.68,1.06-.99,3.18-2.77,18.54-15.57,31.45-16.16,.56-.02,1.12-.05,1.68-.11,3.05-.32,14.59-1.32,21.99,.87,.63,.19,1.27,.34,1.92,.46,5.32,1.01,30.54,7.19,46.62,36.33,0,0,19.7,35.96,23.09,64.75,.07,.64,.17,1.27,.31,1.9,1.1,4.96,6.1,30.72-1.57,59.08-.08,.3-.15,.59-.22,.89-.82,3.87-8.43,36.26-35.77,51.21-.99,.54-2.04,.98-3.12,1.34-5.29,1.76-22.05,6.55-47.77,6.51-2.62,0-5.22-.37-7.73-1.08-8.21-2.34-27.96-10.09-56.94-30.81,0,0-4.92-3.28-8.81-10.57-2.21-4.14-5.88-7.4-10.42-9.03-8.38-3.02-21.19-11.04-24.09-32.02-.29-2.13-.21-4.29,.24-6.39,1.89-8.69,11.24-39.9,31.41-53.87,0,0-4.51,14.48-2.3,39.55"/><path class="cls-1" d="M400.73,588.77s-3-26.42,3.89-43.98c.2-.5,.38-.99,.53-1.51,1.41-4.65,10.48-32.09,34.54-56.36,.34-.34,.69-.68,1.06-.99,3.18-2.77,18.54-15.57,31.45-16.16,.56-.02,1.12-.05,1.68-.11,3.05-.32,14.59-1.32,21.99,.87,.63,.19,1.27,.34,1.92,.46,5.32,1.01,30.54,7.19,46.62,36.33,0,0,19.7,35.96,23.09,64.75,.07,.64,.17,1.27,.31,1.9,1.1,4.96,6.1,30.72-1.57,59.08-.08,.3-.15,.59-.22,.89-.82,3.87-8.43,36.26-35.77,51.21-.99,.54-2.04,.98-3.12,1.34-5.29,1.76-22.05,6.55-47.77,6.51-2.62,0-5.22-.37-7.73-1.08-8.21-2.34-27.96-10.09-56.94-30.81,0,0-4.92-3.28-8.81-10.57-2.21-4.14-5.88-7.4-10.42-9.03-8.38-3.02-21.19-11.04-24.09-32.02-.29-2.13-.21-4.29,.24-6.39,1.89-8.69,11.24-39.9,31.41-53.87,0,0-4.51,14.48-2.3,39.55Z"/><path class="cls-12" d="M358.27,282.97l-11.36-13.83s-3.44-3.68,5.68-7.35c0,0,16.24,1.57,23.91,5.25,0,0,2.19,6.3-2.19,7.88,0,0-6.32,5.6-16.04,8.05Z"/><path class="cls-14" d="M237.24,149.63c10.07-38.59,39.81-48.56,39.81-48.56,22.99,13.62,30.07,32.14,30.07,32.14,0,7.34-12.02,8.47-12.02,8.47-18.04,8.47-20.4,30.09-20.4,30.09,0,0-39.34-14.9-37.45-22.15"/><path class="cls-9" d="M237.24,149.63c10.07-38.59,39.81-48.56,39.81-48.56,22.99,13.62,30.07,32.14,30.07,32.14,0,7.34-12.02,8.47-12.02,8.47-18.04,8.47-20.4,30.09-20.4,30.09,0,0-39.34-14.9-37.45-22.15Z"/><path d="M521.07,192.29c-3,.24-17.3,1.86-25.63,10.93-.21,.23-.05,.59,.27,.6,3.24,.12,16.06-.15,25.56-11.16,.13-.16,0-.4-.2-.38"/><path class="cls-17" d="M490.54,498.68s-21.71-2.31-36.79,26c0,0-13.87,30.63-21.71,71.65,0,0-9.7,39.87,10.5,62.37,0,0,11.96,10.84,23.58,9.98,0,0,37.37,4.58,48.61,.63,0,0,20.11-6.43,26.26-23.86,0,0,9.19-13.07,5.15-37.87,0,0-5.14-51.98-18.35-75.18,0,0-14.68-30.9-37.26-33.73"/><path class="cls-9" d="M490.54,498.68s-21.71-2.31-36.79,26c0,0-13.87,30.63-21.71,71.65,0,0-9.7,39.87,10.5,62.37,0,0,11.96,10.84,23.58,9.98,0,0,37.37,4.58,48.61,.63,0,0,20.11-6.43,26.26-23.86,0,0,9.19-13.07,5.15-37.87,0,0-5.14-51.98-18.35-75.18,0,0-14.68-30.9-37.26-33.73Z"/><path class="cls-17" d="M122.32,471.47s-21.84,.25-33.97,51.9c0,0-6.29,28.84-6.29,82.65,0,0,1.35,18.51,33.69,29.27,0,0,11.54,6.29,20.97-8.35,0,0,9.43-19.06,12.13-42.16,0,0,5.09-63.1-2.55-86.15,0,0-7.08-22.68-23.98-27.17"/><path class="cls-9" d="M122.32,471.47s-21.84,.25-33.97,51.9c0,0-6.29,28.84-6.29,82.65,0,0,1.35,18.51,33.69,29.27,0,0,11.54,6.29,20.97-8.35,0,0,9.43-19.06,12.13-42.16,0,0,5.09-63.1-2.55-86.15,0,0-7.08-22.68-23.98-27.17Z"/><path class="cls-10" d="M146,457.02s26.38,22.96,27.09,79.01c0,0,1.1,47.27-17.92,89.82"/><path class="cls-10" d="M146,636.63s-4.99,5.9-12.81,8.42"/><path class="cls-19" d="M214.18,502.91c-.22,.01-.39-.16-.36-.37,1.04-6.95,17.56-99.77,91.04-123.15,.02,0,1.26-.27,1.24-.25-2.66,3.11-51.97,33.4-54.18,123.21,0,0-2.87-1.16-4.92-1.48l-32.82,2.04Z"/><path class="cls-1" d="M214.18,502.91c-.22,.01-.39-.16-.36-.37,1.04-6.95,17.56-99.77,91.04-123.15,.02,0,1.26-.27,1.24-.25-2.66,3.11-51.97,33.4-54.18,123.21,0,0-2.87-1.16-4.92-1.48l-32.82,2.04Z"/><path class="cls-10" d="M341.81,396.84s-43.84,98.04-3.88,212.49"/><path class="cls-19" d="M490.78,395.66s16.89-4.44,29.38,1.73l140.3,83.67s22.96,13.51,23.77,28.95c0,0,3.22,33.58-20.95,50.96,0,0-33.99,27.36-56.09,31.59-3.24,.62-6.58,.53-9.8-.18-6.94-1.53-21-6.07-29.66-18.66,0,0-15.76-88-60.71-99.98,0,0-15.74-7.03-36.6-3.88,0,0-8.54-22.38,.3-40.45,0,0,6.89-17.71,20.07-33.76"/><path class="cls-1" d="M490.78,395.66s16.89-4.44,29.38,1.73l140.3,83.67s22.96,13.51,23.77,28.95c0,0,3.22,33.58-20.95,50.96,0,0-33.99,27.36-56.09,31.59-3.24,.62-6.58,.53-9.8-.18-6.94-1.53-21-6.07-29.66-18.66,0,0-15.76-88-60.71-99.98,0,0-15.74-7.03-36.6-3.88,0,0-8.54-22.38,.3-40.45,0,0,6.89-17.71,20.07-33.76Z"/><path class="cls-17" d="M635.01,580.46s-12.15,5.43-24.88,4.47c0,0-13.1-2-10.4-17.51,0,0,2.12-36.63,30.18-58.25,0,0,18.46-15.79,38.08-11.47,0,0,12.97,4.57,16.39,12.09,0,0,4.26,28.11-17.56,48.4,0,0-14.42,11.94-31.81,22.26"/><path class="cls-1" d="M635.01,580.46s-12.15,5.43-24.88,4.47c0,0-13.1-2-10.4-17.51,0,0,2.12-36.63,30.18-58.25,0,0,18.46-15.79,38.08-11.47,0,0,12.97,4.57,16.39,12.09,0,0,4.26,28.11-17.56,48.4,0,0-14.42,11.94-31.81,22.26Z"/><path class="cls-19" d="M324.18,362.73s-73.98,49.33-71.84,139.85c0,0,16.65,6.06,29.38,26.87,0,0-2.07-55.38,30.85-82.27,0,0,22.49-23.04,52.54-18.24,0,0,38.58,4.87,56.39,80.1,0,0,21.05-33.85,49.27-39.29,0,0-8.76-20.29,.04-40.28,0,0,8.15-19.22,20.68-34.4,0,0-10.01-16.52-20.68-25.67,0,0-57.62,20.24-104.88,17.78,0,0-9.82-.36-41.75-24.46"/><path class="cls-1" d="M324.18,362.73s-73.98,49.33-71.84,139.85c0,0,16.65,6.06,29.38,26.87,0,0-2.07-55.38,30.85-82.27,0,0,22.49-23.04,52.54-18.24,0,0,38.58,4.87,56.39,80.1,0,0,21.05-33.85,49.27-39.29,0,0-8.76-20.29,.04-40.28,0,0,8.15-19.22,20.68-34.4,0,0-10.01-16.52-20.68-25.67,0,0-57.62,20.24-104.88,17.78,0,0-9.82-.36-41.75-24.46Z"/><path class="cls-17" d="M490.84,189.53s44.2-25.47,54.84-25.78c0,0,13.63-1.94,17.96,7.94,0,0,8.9,19.92,8.9,32.34,0,0-43.4,13.2-53.71,13.52,0,0-10.2-21.38-21.51-31.26"/><path class="cls-9" d="M490.84,189.53s44.2-25.47,54.84-25.78c0,0,13.63-1.94,17.96,7.94,0,0,8.9,19.92,8.9,32.34,0,0-43.4,13.2-53.71,13.52,0,0-10.2-21.38-21.51-31.26"/><path class="cls-10" d="M521.07,192.29c-3,.24-17.3,1.86-25.63,10.93-.21,.23-.05,.59,.27,.6,3.24,.12,16.06-.15,25.56-11.16,.13-.16,0-.4-.2-.38Z"/></g><g id="Layer_26"><path class="cls-21" d="M338.28,347.4c.33-.79,1.01-1.19,1.77-1.52,1.59,1.23,2.26,1.09,2.95-.65,.21-.54,.35-1.11,.51-1.68,1.82-6.47,2.48-13.07,2.48-19.75,0-2.52-.05-5.04-.42-7.55-.07-.47-.21-1.11,.39-1.4,.67-.32,1.17,.13,1.58,.55,1.2,1.26,2.75,2,4.19,2.93,5.28,3.44,10.88,6.04,17.13,7.45,8.66,1.95,17.05,1.1,25.27-1.87,1.43-.52,3.4-1,3.12-3.25,.66-.18,1.29-.05,1.91,.16-1.44,4.65-3.74,8.88-6.71,12.79-2.59,3.41-3.16,3.59-7.18,2.24-4.05-1.36-7.89-1.08-11.55,1.19-2.18,1.36-4.5,2.23-7.21,1.82-3.13-.48-6.19,.53-8.69,1.91-4.22,2.33-7.2,6.09-9.27,10.36-.72,1.48-1.53,1.63-2.82,1.03-2.71-1.25-5.31-2.66-7.43-4.78Z"/><path class="cls-18" d="M397.23,320.67c.28,2.25-1.7,2.73-3.12,3.25-8.21,2.97-16.6,3.82-25.27,1.87-6.25-1.41-11.84-4.01-17.13-7.45-1.44-.94-2.99-1.68-4.19-2.93-.41-.42-.91-.88-1.58-.55-.6,.29-.46,.93-.39,1.4,.36,2.51,.42,5.02,.42,7.55,0,6.68-.66,13.29-2.48,19.75-.16,.56-.29,1.13-.51,1.68-.69,1.74-1.35,1.88-2.95,.65,.51-6.26,1.75-12.44,2.19-18.71,.48-6.83,.47-13.65-1.46-20.25-.8-2.75-1.35-5.64-2.8-8.22-1.31-2.32-3.07-4.21-5.64-5.1-2.35-.82-3.59-2.91-5.61-4.08-.36-.21-.39-.76-.16-1.06,.31-.41,.81-.34,1.24-.07,.94,.58,1.85,1.24,2.84,1.73,8.38,4.2,17.13,7.52,26.28,9.7,9.63,2.29,19.47,3.03,29.39,2.87,3.63-.06,7.25-.26,10.84-.77,.59-.08,1.21-.06,1.81-.06,.82,0,1.43,.28,1.61,1.15,.19,.9-.15,1.48-.99,1.88-1.85,.89-3.9,.96-5.88,1.25-14.51,2.13-28.67,.46-42.53-3.98-1.02-.33-2.03-.67-3.04-1-1.79-.81-3.57-1.63-5.38-2.41-.75-.33-1.79-1.26-2.25-.63-.52,.71,.28,1.74,1.01,2.42,.37,.86,.73,1.72,1.1,2.58-.27,.34-.22,.54,.27,.52,.72,2.08,1.42,4.17,1.82,6.35,.17,.95,.85,1.56,1.62,2.13,7.25,5.27,15.04,9.47,24.07,11.08,8.16,1.46,16.16,.61,23.92-2.21,.98-.36,1.9-.59,2.91-.31Z"/><path class="cls-18" d="M338.28,347.4c2.12,2.11,4.72,3.53,7.43,4.78,1.29,.59,2.1,.44,2.82-1.03,2.07-4.26,5.06-8.03,9.27-10.36,2.5-1.38,5.56-2.39,8.69-1.91,2.71,.41,5.03-.46,7.21-1.82,3.66-2.28,7.51-2.55,11.55-1.19,4.02,1.35,4.59,1.16,7.18-2.24,2.97-3.91,5.27-8.14,6.71-12.79,2.29-4.76,3.02-9.9,3.71-15.03,.22-1.65-.44-3.19-1.11-4.68-.31-.69-.56-1.42,.28-1.88,.96-.52,1.45,.2,1.92,.87,2.41,3.47,1.98,7.36,1.41,11.12-.68,4.53-1.78,9.01-3.51,13.31-1.75,4.35-4.11,8.34-6.83,12.23-3.98,5.69-9.49,9.76-15.01,13.76-3.16,2.29-6.96,3.77-10.72,5.16-5.26,1.95-10.65,2.28-16.16,1.47-1.05-.15-2.07-.53-3.1-.8-1.81-.46-3.62-.92-5.43-1.38-.15-.14-.3-.29-.45-.43,0-.48-.25-.73-.74-.77-1.77,.06-2.68-1.32-3.79-2.25-2.05-1.71-4.28-3.26-5.78-5.52-.36-.55-.94-1.17-.22-1.66,.65-.44,1.24,.12,1.68,.64,.83,.98,1.61,2.02,2.95,2.41Zm19.23,7.22c11.62-.88,20.98-6.14,28.97-14.03,1-.98,.5-1.61-.58-2.03-4.15-1.62-8.25-1.54-12.18,.6-1.6,.87-3.04,2.02-4.53,3.07-.82,.58-1.47,1.06-1.68-.49-.12-.89-1.04-1.03-1.76-.9-2.5,.43-4.96,.98-7.16,2.33-3.81,2.33-6.5,5.71-9.34,8.95-.94,1.07-.26,1.32,.65,1.51,2.49,.52,5,1.01,7.61,.99Z"/><path class="cls-15" d="M409.48,289.86c-.85-.22-1.95,.14-2.42-.97-.11-.27-.04-.6,.22-.66,.99-.22,1.92-.1,2.91,.23,6.08,2.05,6.65,8.8,4.98,12.78-.45,1.07-.98,2.29-2.6,1.25,.98-.02,1.48-.55,1.98-1.36,1.06-1.72,.39-3.52,.52-5.27,.21-2.77-1.28-4.65-3.55-6.01-.51-.31-1.37-1.1-2.04,0Z"/><path class="cls-18" d="M409.48,289.86c.66-1.1,1.53-.31,2.04,0,2.27,1.36,3.75,3.25,3.55,6.01-.13,1.76,.54,3.55-.52,5.27-.5,.8-1,1.33-1.98,1.36-.11-.25-.23-.5-.34-.75,.32-1.4,1.33-2.69,.78-4.24,0-.57,.01-1.15,.02-1.72,.03-1.44-.36-2.75-1.38-3.84-.59-.83-1.72-1.12-2.18-2.08Z"/><path class="cls-15" d="M344.62,354.98c1.81,.46,3.62,.92,5.43,1.38-2.04,.36-3.79-.3-5.43-1.38Z"/><path class="cls-15" d="M413.02,297.51c.55,1.56-.46,2.84-.78,4.24-.21-1.5,.19-2.89,.78-4.24Z"/><path class="cls-15" d="M411.66,291.94c1.01,1.1,1.4,2.4,1.38,3.84-.25-1.35-1.78-2.28-1.38-3.84Z"/><path class="cls-15" d="M343.42,353.78c.49,.04,.74,.3,.74,.77-.45-.08-.8-.24-.74-.77Z"/><path class="cls-15" d="M342.9,303.64c-.49,.02-.53-.18-.27-.52,.34,.06,.43,.23,.27,.52Z"/><path class="cls-15" d="M357.51,354.62c-2.61,.02-5.11-.46-7.61-.99-.91-.19-1.59-.44-.65-1.51,2.85-3.25,5.54-6.62,9.34-8.95,2.21-1.35,4.66-1.89,7.16-2.33,.72-.13,1.65,.01,1.76,.9,.21,1.55,.86,1.07,1.68,.49,1.49-1.05,2.93-2.2,4.53-3.07,3.92-2.13,8.02-2.22,12.18-.6,1.08,.42,1.57,1.04,.58,2.03-7.99,7.89-17.35,13.15-28.97,14.03Z"/></g><g id="viper-gl_asses-v2"><g><path class="cls-7" d="M275.46,174.72s-12.55-.74-16.84,.22l-3.5,16.59s.07,.45,.27,.84l6.41,4.66s1.65-1.89,1.96-3.11l-8.33-1.63,14.39,2.76s1.15,.21,1.37-.87l4.27-19.46Z"/><path class="cls-8" d="M276.48,174.64s22.44-2.42,51.75,1.25c0,0,13.92,1.77,28.58,4.39,0,0-1.64,7.8,.88,9.85l83.37,15.45s3.12,.83,6.08-8.9c0,0,31.46,4.77,75.1,23.94l-4.27,20.23s1.84,.96,6.47,2.17c0,0,1.3,.86,1.94,3.17l-8.75,38.23s-.83,5.56-4.98,5.85c0,0-31.62,.93-63.04,.83,0,0-17.76-1.17-25.69-3.79,0,0-19.51-2.95-24.56-17.17l.73-13.11c.16,.61,.4-8.17,.56-11.92l.41-3.66s.76-4,.43-4.85c0,0,4.31-5.31,.57-13.96,0,0-6.99-7.89-15.77-7.93,0,0-10.45-2.25-18.75,6.8,0,0-3.5,2.03-2.57,2.51l-1.62,.91s-1.91,2.07-2.18,3.07l-6.62,9.99s-4.88,6.7-7.85,9.39c0,0,4.22,2.37-11.28,8.9,0,0-25.04,12.87-31.02,9.57,0,0-37.8-16.68-45.98-23.12,0,0-2.98-2.19-3.13-5.62s7.57-40.25,7.57-40.25c0,0,1.21-1.37,1.91-3.08l4.97,1s.9,.17,1.72,.09c0,0,.36-.25,.57-1.03l4.22-18.78,.24-.39Z"/><path class="cls-5" d="M357.1,180.7s.43-2.03,6.32-.93l73.61,13.4s5.9,1.04,10.08,3.45c0,0,.07,3.29-4.39,8.68,0,0-.92,.42-1.52,.37l-82.24-14.89s-1.28-.06-2.01-2.18c0,0-.68-2.67,.14-7.9Z"/><path class="cls-11" d="M344.37,254.18l2.79,2.73s1.17,.97,1.54-.3l28.07-26.79s9.77-7.56,13.11,5.17l2.46,26.25s1.25,1.56,1.89,1.74c0,0,2.23,1.72,3.66,1.81l1.15-22.85s.34-1.71,.3-2.85l.07-.85s.2-.31,.24-1.88c0,0,7.05-9.68-2.91-16.8,0,0-8.64-5.38-18.13-2.66,0,0-10.66,3.03-16.1,12.64,0,0-2.09,3.12-2.48,3.75l-15.66,20.89Z"/><path class="cls-7" d="M521.66,219.99l13.45,5.9s1.58,.6,1.34,1.44l-3.18,16.12s-4.17,1.46-7.15,2.45c-.12,.04-.26-.04-.25-.15,.05-.41-1.15-2.65-2.15-3.24,0,0-2.68-.64-6.35-2.19l4.13-20.16"/><g><path class="cls-13" d="M506.22,224.14c.29-.94,.58-1.87,.86-2.8,.05-.16,.09-.17,.18-.09,.32,.27,.65,.54,.97,.81,.07,.06,.09,.1,.05,.23-1.01,3.22-2.01,6.45-3.01,9.59-.03,.11-.06,.12-.13,.06-.33-.29-.67-.57-1.01-.83-.09-.07-.09-.13-.05-.23,.03-.06,.05-.14,.07-.23-.1,0-.2-.02-.29-.02-.88-.05-1.61-.58-2.22-1.55-.4-.64-.65-1.38-.73-2.22-.17-1.64,.24-2.98,1.17-4,.76-.83,1.62-1.05,2.51-.64,.58,.27,1.06,.79,1.43,1.56,.06,.11,.11,.23,.17,.37Z"/><path class="cls-13" d="M511.78,229.09c.06-.12,.06-.33,.14-.35,.08-.02,.17,.13,.25,.22,.28,.27,.56,.55,.84,.82,.06,.06,.07,.1,.04,.19-.72,2.27-1.46,4.59-2.19,6.92-.04,.12-.07,.09-.13,.04-.34-.31-.67-.62-1.01-.93-.07-.06-.09-.12-.05-.22,.03-.07,.05-.16,.08-.24-.05-.04-.1-.04-.15-.04-.87-.04-1.62-.61-2.24-1.67-.38-.65-.62-1.41-.76-2.25-.28-1.69,.21-3.82,1.36-4.67,.87-.64,1.76-.55,2.64,.28,.45,.42,.81,.99,1.09,1.71,.01,.03,.02,.06,.03,.08,.02,.03,.04,.07,.06,.11Z"/><path class="cls-13" d="M500.2,220.18c.04-.11,.07-.21,.09-.3,.02-.09,.05-.1,.11-.07,.36,.19,.72,.38,1.08,.58,.08,.04,.04,.11,.02,.18-.45,1.42-.89,2.82-1.33,4.18-.29,.9-.58,1.78-.86,2.64-.04,.12-.07,.13-.15,.08-.33-.22-.66-.43-1-.62-.1-.06-.11-.11-.06-.23,.03-.06,.04-.12,.07-.2-.08,0-.15,0-.22,.01-.89,.1-1.65-.25-2.28-1-.41-.48-.65-1.05-.79-1.72-.26-1.21,.2-2.87,1.2-3.92,.91-.94,1.88-1.3,2.86-.89,.45,.19,.83,.54,1.12,1.06,.04,.07,.08,.13,.13,.21Z"/><path class="cls-13" d="M512.76,235.73c.19,.18,.39,.36,.58,.54,.05,.04,.07,.08,.05,.17-.12,.44-.05,.86,.18,1.23,.29,.48,.64,.81,1.03,1,.13,.06,.26,.06,.39-.01,.22-.12,.28-.41,.16-.76-.1-.31-.27-.54-.42-.77-.38-.55-.76-1.07-1.13-1.65-.26-.41-.45-.87-.57-1.39-.09-.39-.07-.77,0-1.13,.08-.37,.2-.7,.37-.96,.41-.61,.92-.69,1.48-.43,.42,.2,.81,.57,1.18,.99,.29,.33,.57,.69,.81,1.12,.09,.17,.18,.34,.25,.52,.33,.81,.36,1.56,.15,2.29-.02,.08-.04,.11-.11,.05-.37-.36-.73-.71-1.1-1.06-.05-.05-.07-.1-.05-.17v-.03c.1-.48-.02-.89-.28-1.24-.28-.36-.57-.67-.91-.76-.15-.04-.3,.06-.37,.29-.06,.17-.02,.38,.08,.6,.27,.59,.63,1.03,.96,1.52,.35,.52,.71,1.02,.97,1.66,.16,.4,.24,.81,.23,1.25-.01,.33-.05,.66-.18,.92-.26,.52-.57,.95-1.04,1.01-.41,.05-.81-.06-1.21-.31-.69-.44-1.32-1.05-1.81-1.96-.5-.92-.68-1.82-.4-2.94,.04-.14,.07-.18,.17-.08,.18,.18,.36,.35,.55,.52Z"/><path class="cls-13" d="M512.94,225.89s-.02,.1-.07,.06c0-.06,.02-.09,.07-.06Z"/><path class="cls-13" d="M516.99,231.03c.04,.05,.02,.09,0,.13-.04-.05-.02-.09,0-.13Z"/><path class="cls-4" d="M505.19,227.43c-.27,1.18-1.35,1.58-2.08,1-.76-.61-1.15-1.94-.77-3.13,.38-1.19,1.34-1.65,2.11-1.1,.73,.51,1.19,2.15,.74,3.23Z"/><path class="cls-3" d="M510.77,232.31c-.33,1.25-1.38,1.48-2.07,.82-.76-.72-1.12-2.16-.73-3.39,.38-1.21,1.31-1.53,2.07-.85,.69,.61,1.17,2.25,.73,3.41Z"/><path class="cls-2" d="M499.17,223.37c-.28,1.14-1.36,1.62-2.1,1.23-.79-.42-1.17-1.54-.81-2.62,.37-1.11,1.32-1.71,2.11-1.39,.74,.29,1.24,1.69,.79,2.77Z"/><path class="cls-13" d="M476.41,224.19c.69-1,1.38-2.17,2.06-3.53,.66,.06,1.33,.2,2.02,.44,1.19-.87,2.4-1.82,3.63-2.83-.72,1.79-1.43,3.39-2.14,4.81-.41,.04-.82,.1-1.22,.16,.37-.75,.74-1.55,1.12-2.4-.64,.49-1.27,.95-1.89,1.39-.34-.17-.68-.31-1.01-.43-.39,.73-.77,1.4-1.16,2.02-.47,.11-.93,.24-1.39,.36Z"/><path class="cls-13" d="M484.12,222.82s-.1-.06-.15-.09c0-.02-.03-.03-.05-.03-.05-.02-.11-.03-.13-.07-.05-.03-.05-.03-.11-.09h0s-.05-.08-.09-.1c-.25-.25-.27-.59-.21-.97,.05-.3,.15-.61,.33-.94,.22-.44,.51-.89,.92-1.37,.03-.04,.06-.07,.09-.11,.02-.03,.03-.06,.08-.08h0s.07-.1,.13-.14c.06-.03,.1-.09,.16-.13,.04-.01,.05-.04,.07-.06,.11-.11,.22-.2,.34-.3,0,.02,0,.05,0,.06,0-.01,.01-.04,0-.06,.04-.03,.08-.07,.12-.1,.02-.02,.04-.03,.06-.03,.03,.01,.03-.03,.05-.04l.08-.06s.06-.06,.11-.07c.37-.25,.75-.45,1.13-.58,.45-.16,.88-.24,1.27-.21,.06,.03,.12,.06,.21,.03,.19,.02,.35,.08,.5,.17,.03,.02,.06,.03,.08,.05,.03,0,.03,.03,.05,.05l.05,.04s.06,.02,.06,.05l.03,.03s0,.01,0,.02h0s.02,.02,.02,.03l.03,.02c0,.06,.02,.09,.07,.1h0c.02,.07,0,.17,.1,.19,.14,.26,.21,.57,.18,.92,0,.06-.04,.12-.01,.17-.03,.42-.15,.84-.31,1.25-.08,.2-.08,.2-.28,.19-1.45-.08-2.9-.02-4.32,.17-.14,.02-.13,.02-.17,.13-.14,.39,.01,1.15,.17,1.15,.23,.24,.6,.32,1.06,.32,.32,0,.65-.05,.98-.21,.02-.01,.04-.02,.06-.03,.15-.06,.3-.14,.42-.25,.02-.02,.04-.04,.07-.05,.15-.12,.28-.25,.39-.4,0,0,0,0,0-.02h.02s.06-.06,.09-.1c.01,0,.02,0,.02,0h0s.08,0,.1,.02c.29,.05,.58,.1,.87,.16,.13,.03,0,.1-.01,.15,0,.02-.02,.03-.03,.04v.02s-.03,.06-.07,.08c-.09,.1-.18,.2-.27,.3-.31,.31-.67,.54-1.07,.71-.47,.2-.95,.29-1.43,.3-.45,.02-.87,0-1.27-.07-.19-.03-.37-.09-.54-.14-.01,0-.03,0-.04-.02Z"/><path class="cls-13" d="M485.93,218.84l.04-.04s.05-.05,.08-.07c.13-.06,.24-.17,.37-.24,.21-.12,.42-.21,.63-.27,.04,0,.08-.03,.11-.04,.43-.1,.81-.08,1.08,.12,.32,.23,.37,.63,.27,1.09-.02,.08,0,.19-.07,.25-.07,.06-.17,.02-.26,.02-1.02,.03-2.04,.13-3.05,.29-.12,.02-.11,.02-.06-.09,.08-.16,.19-.32,.31-.48,.11-.15,.25-.3,.41-.43,.05-.04,.11-.06,.13-.11Z"/><path class="cls-13" d="M492.24,222.77c-.01,.17,.09,.3,.31,.38,.26,.1,.53,.11,.8,.14,.06,0,.08,.01,.07,.08-.04,.34-.13,.66-.2,.98-.02,.07-.05,.09-.12,.08-.79-.09-1.55-.27-2.24-.64-.26-.14-.49-.3-.6-.53-.08-.16-.1-.33-.06-.51,.02-.07,.03-.15,.05-.22-.03-.07,.05-.13,.03-.2,.32-.86,.64-1.76,.97-2.68,.03-.08,0-.1-.08-.11-.22-.02-.44-.04-.67-.06-.07,0-.1-.02-.07-.09,.11-.3,.22-.61,.33-.92,.03-.08,.06-.09,.14-.09,.22,.01,.45,.02,.67,.05,.09,.01,.12-.02,.14-.09,.1-.3,.2-.59,.3-.9,.02-.06,.05-.09,.11-.11,.55-.18,1.1-.36,1.65-.52,.13-.04,.26-.07,.39-.11,.11-.04,.09,0,.07,.07-.2,.61-.4,1.22-.6,1.81-.04,.1,0,.13,.09,.14,.36,.06,.72,.15,1.08,.23,.09,.02,.1,.05,.07,.14-.12,.33-.23,.67-.33,1-.03,.08-.06,.09-.14,.07-.37-.1-.74-.19-1.11-.27-.06-.01-.1-.01-.12,.06-.31,.92-.62,1.82-.93,2.68,.02,.05-.03,.1,0,.15Z"/></g></g></g><g id="hat1-armyhat"><path class="cls-6" d="M329.63,59.66s16.9-4.44,29.39,1.73l140.33,83.67s22.97,13.51,23.78,28.95c0,0,3.22,33.58-20.96,50.96,0,0-34,27.36-56.11,31.59-3.24,.62-6.59,.53-9.81-.18-6.94-1.53-21.01-6.07-29.67-18.66,0,0-15.76-88-60.73-99.98,0,0-15.74-7.03-36.61-3.88,0,0-8.54-22.38,.3-40.45,0,0,6.89-17.71,20.08-33.76"/></g></svg>