<svg width="31" height="34" viewBox="0 0 31 34" fill="none" xmlns="http://www.w3.org/2000/svg">
<path d="M26.2428 6.21394C24.267 5.24886 22.1482 4.53782 19.9329 4.13058C19.8925 4.12272 19.8522 4.14237 19.8314 4.18165C19.5589 4.69757 19.2571 5.37063 19.0457 5.89965C16.663 5.51992 14.2925 5.51992 11.9587 5.89965C11.7473 5.35887 11.4345 4.69757 11.1607 4.18165C11.14 4.14368 11.0997 4.12404 11.0593 4.13058C8.84522 4.53652 6.72643 5.24756 4.74937 6.21394C4.73226 6.2218 4.71759 6.23491 4.70785 6.25192C0.688964 12.6434 -0.411977 18.8778 0.128108 25.0349C0.130551 25.065 0.146436 25.0938 0.168431 25.1122C2.81998 27.185 5.38846 28.4434 7.90924 29.2776C7.94958 29.2907 7.99232 29.275 8.018 29.2396C8.61429 28.3727 9.14583 27.4587 9.60157 26.4976C9.62847 26.4413 9.6028 26.3745 9.54783 26.3522C8.70471 26.0118 7.9019 25.5967 7.12965 25.1253C7.06857 25.0873 7.06368 24.9943 7.11987 24.9498C7.28238 24.8201 7.44493 24.6853 7.60011 24.5491C7.62818 24.5242 7.6673 24.519 7.70031 24.5347C12.7737 27.0004 18.2662 27.0004 23.2796 24.5347C23.3127 24.5177 23.3518 24.5229 23.3811 24.5478C23.5363 24.684 23.6988 24.8201 23.8625 24.9498C23.9187 24.9943 23.9151 25.0873 23.854 25.1253C23.0817 25.6058 22.2789 26.0118 21.4346 26.3509C21.3796 26.3732 21.3552 26.4413 21.3821 26.4976C21.8476 27.4574 22.3791 28.3714 22.9644 29.2383C22.9889 29.275 23.0328 29.2907 23.0732 29.2776C25.6062 28.4434 28.1746 27.185 30.8262 25.1122C30.8494 25.0938 30.8641 25.0663 30.8665 25.0362C31.5129 17.9179 29.7839 11.7347 26.2831 6.25322C26.2746 6.23491 26.2599 6.2218 26.2428 6.21394ZM10.3592 21.2859C8.83177 21.2859 7.57321 19.7931 7.57321 17.9599C7.57321 16.1266 8.80736 14.6338 10.3592 14.6338C11.9232 14.6338 13.1696 16.1397 13.1451 17.9599C13.1451 19.7931 11.911 21.2859 10.3592 21.2859ZM20.6599 21.2859C19.1325 21.2859 17.8739 19.7931 17.8739 17.9599C17.8739 16.1266 19.1081 14.6338 20.6599 14.6338C22.2239 14.6338 23.4703 16.1397 23.4459 17.9599C23.4459 19.7931 22.2239 21.2859 20.6599 21.2859Z" fill="white"/>
</svg>
