<svg width="25" height="27" viewBox="0 0 25 27" fill="none" xmlns="http://www.w3.org/2000/svg">
<path fill-rule="evenodd" clip-rule="evenodd" d="M0.162628 13.3453C0.162628 8.04718 0.162628 5.39813 1.33494 3.4901C1.85844 2.63806 2.536 1.90838 3.32717 1.34462C5.09892 0.0821228 7.55875 0.0821228 12.4784 0.0821228C17.3981 0.0821228 19.8579 0.0821228 21.6297 1.34462C22.4208 1.90838 23.0984 2.63806 23.6219 3.4901C24.7942 5.39813 24.7942 8.04718 24.7942 13.3453C24.7942 18.6434 24.7942 21.2924 23.6219 23.2005C23.0984 24.0525 22.4208 24.7822 21.6297 25.3459C19.8579 26.6084 17.3981 26.6084 12.4784 26.6084C7.55875 26.6084 5.09892 26.6084 3.32717 25.3459C2.536 24.7822 1.85844 24.0525 1.33494 23.2005C0.162628 21.2924 0.162628 18.6434 0.162628 13.3453ZM18.8542 13.3456C18.8542 17.1379 15.9996 20.2121 12.4782 20.2121C8.95681 20.2121 6.10217 17.1379 6.10217 13.3456C6.10217 9.55335 8.95681 6.47912 12.4782 6.47912C15.9996 6.47912 18.8542 9.55335 18.8542 13.3456ZM12.4782 17.889C14.8082 17.889 16.697 15.8549 16.697 13.3456C16.697 10.8364 14.8082 8.80224 12.4782 8.80224C10.1482 8.80224 8.25935 10.8364 8.25935 13.3456C8.25935 15.8549 10.1482 17.889 12.4782 17.889ZM19.1061 7.74756C19.9335 7.74756 20.6042 7.02521 20.6042 6.13414C20.6042 5.24307 19.9335 4.52071 19.1061 4.52071C18.2786 4.52071 17.6079 5.24307 17.6079 6.13414C17.6079 7.02521 18.2786 7.74756 19.1061 7.74756Z" fill="white"/>
</svg>
