<?xml version="1.0" encoding="UTF-8"?><svg id="Layer_2" xmlns="http://www.w3.org/2000/svg" viewBox="0 0 30 25.26"><defs><style>.cls-1{fill:#28bf7b;}.cls-2{fill:#39e09b;}</style></defs><g id="Layer_1-2"><path class="cls-2" d="M11.16,.68c-.51-.91-1.82-.91-2.33,0L.13,16.46c-.4,.81,.2,1.72,1.11,1.72H7.11v5.97c0,.61,.51,1.11,1.11,1.11h3.44c.61,0,1.11-.51,1.11-1.11v-5.97h-1.62c-.71,0-1.21-.51-1.32-1.11,0-.2,0-.4,.1-.61L14.8,7.66,11.16,.68Z"/><path class="cls-1" d="M18.84,.68c.51-.91,1.82-.91,2.33,0l8.7,15.78c.4,.81-.2,1.72-1.11,1.72h-5.77v5.97c0,.61-.51,1.11-1.11,1.11h-3.64c-.61,0-1.11-.51-1.11-1.11v-5.97h1.62c.71,0,1.21-.51,1.32-1.11,0-.2,0-.4-.1-.61L15.1,7.66,18.84,.68Z"/></g></svg>