<?xml version="1.0" encoding="UTF-8"?><svg id="Layer_2" xmlns="http://www.w3.org/2000/svg" viewBox="0 0 33 27.79"><defs><style>.cls-1{fill:#28bf7b;}.cls-2{fill:#39e09b;}</style></defs><g id="Layer_1-2"><path class="cls-2" d="M12.27,.75c-.56-1-2-1-2.56,0L.14,18.11c-.45,.89,.22,1.89,1.22,1.89H7.82v6.56c0,.67,.56,1.22,1.22,1.22h3.78c.67,0,1.22-.56,1.22-1.22v-6.56h-1.78c-.78,0-1.34-.56-1.45-1.22,0-.22,0-.44,.11-.67l5.34-9.68L12.27,.75Z"/><path class="cls-1" d="M20.73,.75c.56-1,2-1,2.56,0l9.57,17.36c.45,.89-.22,1.89-1.22,1.89h-6.34v6.56c0,.67-.56,1.22-1.23,1.22h-4.01c-.67,0-1.22-.56-1.22-1.22v-6.56h1.78c.78,0,1.34-.56,1.45-1.22,0-.22,0-.44-.11-.67l-5.34-9.68L20.73,.75Z"/></g></svg>