<?xml version="1.0" encoding="UTF-8"?><svg id="Layer_2" xmlns="http://www.w3.org/2000/svg" viewBox="0 0 40 33.68"><defs><style>.cls-1{fill:#28bf7b;}.cls-2{fill:#39e09b;}</style></defs><g id="Layer_1-2"><path class="cls-2" d="M14.87,.91c-.67-1.21-2.43-1.21-3.1,0L.17,21.95c-.54,1.08,.27,2.29,1.48,2.29h7.82v7.96c0,.81,.67,1.48,1.48,1.48h4.59c.81,0,1.48-.67,1.48-1.48v-7.96h-2.16c-.94,0-1.62-.67-1.75-1.48,0-.27,0-.54,.14-.81l6.48-11.73L14.87,.91Z"/><path class="cls-1" d="M25.13,.91c.67-1.21,2.43-1.21,3.1,0l11.6,21.04c.54,1.08-.27,2.29-1.48,2.29h-7.69v7.96c0,.81-.67,1.48-1.49,1.48h-4.85c-.81,0-1.48-.67-1.48-1.48v-7.96h2.16c.94,0,1.62-.67,1.75-1.48,0-.27,0-.54-.14-.81l-6.47-11.73L25.13,.91Z"/></g></svg>