<?xml version="1.0" encoding="UTF-8"?><svg id="Layer_2" xmlns="http://www.w3.org/2000/svg" viewBox="0 0 28 23.58"><defs><style>.cls-1{fill:#28bf7b;}.cls-2{fill:#39e09b;}</style></defs><g id="Layer_1-2"><path class="cls-2" d="M10.41,.64c-.47-.85-1.7-.85-2.17,0L.12,15.36c-.38,.76,.19,1.6,1.04,1.6H6.63v5.57c0,.57,.47,1.04,1.04,1.04h3.21c.57,0,1.04-.47,1.04-1.04v-5.57h-1.51c-.66,0-1.13-.47-1.23-1.04,0-.19,0-.38,.09-.57L13.81,7.15,10.41,.64Z"/><path class="cls-1" d="M17.59,.64c.47-.85,1.7-.85,2.17,0l8.12,14.73c.38,.76-.19,1.6-1.04,1.6h-5.38v5.57c0,.57-.47,1.04-1.04,1.04h-3.4c-.57,0-1.04-.47-1.04-1.04v-5.57h1.51c.66,0,1.13-.47,1.23-1.04,0-.19,0-.38-.09-.57L14.09,7.15,17.59,.64Z"/></g></svg>