<?xml version="1.0" encoding="UTF-8"?><svg id="Layer_2" xmlns="http://www.w3.org/2000/svg" viewBox="0 0 25.19 21.33"><defs><style>.cls-1{fill:#fff;}.cls-2{opacity:0;}</style></defs><g id="Layer_1-2"><rect class="cls-2" width="25.19" height="21.33"/><path class="cls-1" d="M9.39,.85c-.42-.76-1.52-.76-1.94,0L.2,13.99c-.34,.67,.17,1.43,.93,1.43H6.02v4.97c0,.51,.42,.93,.93,.93h2.87c.51,0,.93-.42,.93-.93v-4.97h-1.35c-.59,0-1.01-.42-1.1-.93,0-.17,0-.34,.08-.51l4.05-7.33L9.39,.85Z"/><path class="cls-1" d="M15.8,.85c.42-.76,1.52-.76,1.94,0l7.25,13.15c.34,.67-.17,1.43-.93,1.43h-4.81v4.97c0,.51-.42,.93-.93,.93h-3.03c-.51,0-.93-.42-.93-.93v-4.97h1.35c.59,0,1.01-.42,1.1-.93,0-.17,0-.34-.08-.51l-4.05-7.33L15.8,.85Z"/></g></svg>