<?xml version="1.0" encoding="utf-8"?>
<!-- Generator: Adobe Illustrator 19.0.0, SVG Export Plug-In . SVG Version: 6.00 Build 0)  -->
<svg version="1.1" id="Layer_1" xmlns:xodm="http://www.corel.com/coreldraw/odm/2003"
	 xmlns="http://www.w3.org/2000/svg" xmlns:xlink="http://www.w3.org/1999/xlink" x="0px" y="0px" viewBox="944 -854 2500 2500"
	 style="enable-background:new 944 -854 2500 2500;" xml:space="preserve">
<style type="text/css">
	.st0{fill:none;}
	.st1{fill:url(#SVGID_1_);}
	.st2{fill:url(#SVGID_2_);}
	.st3{fill:url(#SVGID_3_);}
</style>
<g id="Layer_x0020_1">
	<rect x="944" y="-854" class="st0" width="2500" height="2500"/>
	<g id="_2525589905120">
		
			<linearGradient id="SVGID_1_" gradientUnits="userSpaceOnUse" x1="4008.0435" y1="3177.4021" x2="2646.4438" y2="537.4919" gradientTransform="matrix(1 0 0 -1 0 792)">
			<stop  offset="0" style="stop-color:#00FFA3"/>
			<stop  offset="1" style="stop-color:#DC1FFF"/>
		</linearGradient>
		<path class="st1" d="M1350.2,911.7c15.1-15.1,35.8-23.9,57.8-23.9h1995c36.4,0,54.7,44,28.9,69.8l-394.1,394.1
			c-15.1,15.1-35.8,23.9-57.8,23.9H985c-36.5,0-54.7-44-28.9-69.8L1350.2,911.7L1350.2,911.7z"/>
		
			<linearGradient id="SVGID_2_" gradientUnits="userSpaceOnUse" x1="3411.1982" y1="3491.6594" x2="2049.5979" y2="851.7493" gradientTransform="matrix(1 0 0 -1 0 792)">
			<stop  offset="0" style="stop-color:#00FFA3"/>
			<stop  offset="1" style="stop-color:#DC1FFF"/>
		</linearGradient>
		<path class="st2" d="M1350.2-559.7c15.7-15.1,36.5-23.9,57.8-23.9h1995c36.4,0,54.7,44,28.9,69.8l-394.1,394.1
			c-15.1,15.1-35.8,23.9-57.8,23.9H985c-36.5,0-54.7-44-28.9-69.8L1350.2-559.7L1350.2-559.7z"/>
		
			<linearGradient id="SVGID_3_" gradientUnits="userSpaceOnUse" x1="3712.3604" y1="3331.1931" x2="2344.5505" y2="691.2832" gradientTransform="matrix(1 0 0 -1 0 792)">
			<stop  offset="0" style="stop-color:#00FFA3"/>
			<stop  offset="1" style="stop-color:#DC1FFF"/>
		</linearGradient>
		<path class="st3" d="M3037.8,171.3c-15.1-15.1-35.8-23.9-57.8-23.9H985c-36.5,0-54.7,44-28.9,69.8l394.1,394.1
			c15.1,15.1,35.8,23.9,57.8,23.9h1995c36.4,0,54.7-44,28.9-69.8L3037.8,171.3L3037.8,171.3z"/>
	</g>
</g>
</svg>
