<?xml version="1.0" standalone="no"?>
<!DOCTYPE svg PUBLIC "-//W3C//DTD SVG 20010904//EN"
 "http://www.w3.org/TR/2001/REC-SVG-20010904/DTD/svg10.dtd">
<svg version="1.0" xmlns="http://www.w3.org/2000/svg"
 width="400.000000pt" height="400.000000pt" viewBox="0 0 400.000000 400.000000"
 preserveAspectRatio="xMidYMid meet">

<g transform="translate(0.000000,400.000000) scale(0.100000,-0.100000)"
fill="#000000" stroke="none">
<path d="M0 2000 l0 -2000 2000 0 2000 0 0 2000 0 2000 -2000 0 -2000 0 0
-2000z m1006 890 c63 -21 178 -91 239 -144 l40 -35 -46 -48 c-26 -26 -70 -81
-99 -120 -36 -51 -58 -73 -73 -73 -61 0 -323 99 -341 129 -16 25 105 240 162
288 33 28 47 28 118 3z m2278 -82 c10 -6 40 -56 66 -111 73 -157 77 -138 -39
-196 -55 -28 -139 -67 -188 -87 l-87 -36 -32 38 -32 38 19 27 c37 52 17 73
-47 49 -25 -10 -31 -7 -67 28 l-38 39 93 70 c206 155 272 182 352 141z m-1709
-617 c21 -9 22 -10 24 -71 1 -40 1 -40 41 -40 l40 0 0 49 c0 55 1 56 47 66 29
6 34 3 44 -18 7 -15 9 -41 5 -61 -7 -35 -8 -36 -51 -36 l-45 0 0 -65 0 -65
-40 0 -40 0 0 65 0 65 -50 0 -50 0 0 -59 c0 -33 -5 -63 -11 -66 -6 -4 -26 -4
-45 -1 -33 7 -34 9 -34 51 0 65 7 75 51 75 38 0 39 1 39 34 0 74 23 97 75 77z
m1019 -17 c3 -9 6 -33 6 -54 0 -39 0 -39 -42 -42 l-43 -3 -3 -67 -3 -68 46 0
46 0 -3 -57 -3 -58 -39 0 -40 0 -2 43 c-2 49 -26 82 -59 82 -19 0 -23 7 -28
42 -7 54 6 78 42 78 39 0 55 22 47 64 -5 27 -3 37 11 45 27 16 60 13 67 -5z
m188 -9 c7 -17 8 -35 2 -57 -9 -29 -14 -33 -44 -33 -35 0 -35 0 -38 49 -3 53
6 66 46 66 14 0 26 -9 34 -25z m-82 -142 c0 -55 -21 -83 -62 -83 -28 0 -28 0
-28 65 l0 65 45 0 45 0 0 -47z m-1302 -130 c3 -52 3 -52 -30 -61 -23 -6 -38
-18 -50 -43 -10 -20 -17 -27 -18 -17 0 10 -12 26 -27 35 l-27 18 29 5 c24 4
31 12 40 46 13 52 32 76 59 72 18 -3 21 -11 24 -55z m192 -2 c0 -26 -5 -52
-12 -59 -18 -18 -56 -14 -68 7 -10 19 -14 94 -6 102 3 3 23 3 45 1 l41 -4 0
-47z m830 9 c0 -56 -23 -76 -100 -85 -53 -6 -65 -5 -79 11 -15 17 -15 17 1 5
9 -7 32 -11 50 -9 30 3 33 6 36 38 5 74 9 80 52 80 40 0 40 0 40 -40z m-292
24 c12 -4 22 -12 22 -19 0 -19 -43 -67 -78 -88 l-30 -17 -46 37 c-73 62 -57
92 49 93 33 0 70 -3 83 -6z m109 -51 c-3 -10 -5 -2 -5 17 0 19 2 27 5 18 2
-10 2 -26 0 -35z m217 -272 c9 -15 -50 -88 -106 -130 -59 -44 -165 -97 -215
-107 -28 -6 -33 -3 -39 19 -3 15 -7 41 -7 58 -2 31 1 33 53 49 30 9 102 37
160 62 147 64 146 63 154 49z m-376 -196 c6 -27 9 -52 6 -54 -2 -2 -37 -6 -79
-9 -82 -5 -169 9 -254 40 -54 21 -55 21 -33 38 16 13 50 19 134 25 62 4 133
10 158 14 25 4 48 5 51 2 4 -3 12 -28 17 -56z"/>
</g>
</svg>
