<svg width="33" height="27" viewBox="0 0 33 27" fill="none" xmlns="http://www.w3.org/2000/svg">
<path d="M21.8386 0.305848V0.299988H23.3711L23.9311 0.411331C24.3044 0.483616 24.6433 0.578345 24.9479 0.695548C25.2524 0.812751 25.5471 0.949498 25.832 1.10576C26.1169 1.26202 26.3753 1.42124 26.6072 1.58336C26.837 1.74355 27.0433 1.91349 27.2261 2.0932C27.4068 2.27486 27.6887 2.32174 28.0719 2.23384C28.455 2.14594 28.8676 2.02384 29.3097 1.86758C29.7518 1.71132 30.189 1.53551 30.6212 1.34017C31.0534 1.14482 31.3168 1.02079 31.4111 0.968045C31.5034 0.91337 31.5525 0.884069 31.5584 0.880143L31.5643 0.871353L31.5938 0.856703L31.6232 0.842052L31.6527 0.827402L31.6822 0.812751L31.6881 0.803961L31.6969 0.798101L31.7058 0.792241L31.7116 0.783451L31.7411 0.77466L31.7706 0.7688L31.7647 0.812751L31.7558 0.856703L31.7411 0.900654L31.7264 0.944605L31.7116 0.973906L31.6969 1.00321L31.6822 1.04716C31.6724 1.07646 31.6625 1.11552 31.6527 1.16436C31.6429 1.21321 31.5495 1.40852 31.3727 1.75038C31.1959 2.09223 30.9748 2.43894 30.7096 2.79055C30.4444 3.14216 30.2066 3.4078 29.9964 3.58753C29.7842 3.7692 29.6437 3.89616 29.5749 3.96845C29.5062 4.04266 29.4227 4.11102 29.3244 4.17355L29.1771 4.27024L29.1476 4.28489L29.1181 4.29954L29.1123 4.30833L29.1034 4.31419L29.0945 4.32005L29.0887 4.32884L29.0592 4.34349L29.0297 4.35815L29.0238 4.36694L29.015 4.3728L29.0061 4.37866L29.0002 4.38745L28.9944 4.39624L28.9855 4.4021L28.9767 4.40796L28.9708 4.41675H29.1181L29.9433 4.24094C30.4935 4.12374 31.0191 3.98213 31.5201 3.81608L32.3158 3.55237L32.4042 3.52307L32.4484 3.50842L32.4779 3.49377L32.5074 3.47912L32.5369 3.46447L32.5663 3.44982L32.6253 3.44103L32.6842 3.43517V3.49377L32.6695 3.49963L32.6547 3.50842L32.6489 3.51721L32.64 3.52307L32.6312 3.52893L32.6253 3.53772L32.6194 3.54651L32.6105 3.55237L32.6017 3.55823L32.5958 3.56702L32.5899 3.57581L32.5811 3.58167L32.5663 3.61098L32.5516 3.64028L32.5427 3.64614C32.5388 3.652 32.4141 3.81801 32.1685 4.14425C31.9229 4.47242 31.7902 4.63844 31.7706 4.64236C31.751 4.64822 31.7234 4.67752 31.6881 4.73027C31.6547 4.78494 31.4464 5.00276 31.0633 5.38367C30.6801 5.76458 30.3049 6.10348 29.9375 6.40041C29.5681 6.69928 29.3814 7.0665 29.3775 7.50212C29.3716 7.93577 29.349 8.42609 29.3097 8.97302C29.2704 9.51998 29.1967 10.1109 29.0887 10.7457C28.9806 11.3806 28.8136 12.0984 28.5876 12.8993C28.3617 13.7002 28.0866 14.4816 27.7624 15.2434C27.4382 16.0052 27.0993 16.6889 26.7456 17.2944C26.392 17.9 26.0678 18.4128 25.7731 18.8327C25.4784 19.2527 25.1787 19.6483 24.8742 20.0194C24.5697 20.3906 24.1846 20.8086 23.7189 21.2735C23.2513 21.7364 22.9959 21.9904 22.9527 22.0353C22.9075 22.0783 22.7149 22.2385 22.375 22.5158C22.0371 22.7952 21.6736 23.0745 21.2845 23.3538C20.8975 23.6312 20.5418 23.8627 20.2176 24.0483C19.8935 24.2338 19.5025 24.4458 19.0447 24.6841C18.5889 24.9244 18.0957 25.147 17.5652 25.3522C17.0347 25.5573 16.4747 25.7477 15.8853 25.9235C15.2959 26.0993 14.7261 26.2361 14.1759 26.3337C13.6258 26.4314 13.002 26.5144 12.3045 26.5828L11.2582 26.6853V26.7H9.34256V26.6853L9.09205 26.6707C8.92506 26.6609 8.78751 26.6511 8.67944 26.6414C8.5714 26.6316 8.16368 26.5779 7.45636 26.4802C6.74904 26.3826 6.194 26.2849 5.79121 26.1872C5.38844 26.0896 4.78917 25.904 3.99343 25.6305C3.19769 25.357 2.51689 25.0806 1.95103 24.8013C1.38715 24.5239 1.03349 24.3481 0.890048 24.2739C0.748583 24.2016 0.589436 24.1118 0.412605 24.0043L0.147359 23.8432L0.141494 23.8344L0.132623 23.8285L0.123781 23.8227L0.117887 23.8139L0.0884154 23.7992L0.0589436 23.7846L0.0530787 23.7758L0.0442077 23.7699L0.0353661 23.764L0.0294718 23.7553L0.0236069 23.7465L0.0147359 23.7406H0V23.682L0.0294718 23.6879L0.0589436 23.6967L0.191567 23.7113C0.279982 23.7211 0.520678 23.7357 0.913625 23.7553C1.3066 23.7748 1.7241 23.7748 2.16618 23.7553C2.60825 23.7357 3.06017 23.6918 3.52188 23.6234C3.98361 23.555 4.52884 23.4378 5.15756 23.2718C5.78631 23.1057 6.36396 22.9085 6.89053 22.6799C7.41513 22.4494 7.78842 22.2775 8.01046 22.1642C8.2305 22.0529 8.56648 21.8458 9.01837 21.5431L9.69622 21.0889L9.70211 21.0801L9.71095 21.0742L9.71982 21.0684L9.72569 21.0596L9.73158 21.0508L9.74043 21.0449L9.7493 21.0391L9.75516 21.0303L9.78463 21.0215L9.81411 21.0156L9.82 20.9863L9.82884 20.957L9.83771 20.9512L9.84358 20.9424L9.6078 20.9277C9.45063 20.918 9.29835 20.9082 9.15099 20.8984C9.00363 20.8887 8.77278 20.8447 8.4584 20.7666C8.14406 20.6884 7.80513 20.5712 7.44163 20.415C7.07815 20.2587 6.72449 20.0731 6.38064 19.8583C6.03682 19.6434 5.78826 19.4646 5.63501 19.3221C5.48373 19.1814 5.28724 18.9822 5.04557 18.7243C4.80588 18.4645 4.5976 18.1979 4.42077 17.9244C4.24394 17.6509 4.07498 17.3354 3.91388 16.978L3.66924 16.4447L3.6545 16.4008L3.63977 16.3568L3.63092 16.3275L3.62503 16.2982L3.66924 16.3041L3.71345 16.3129L4.03763 16.3568C4.25378 16.3861 4.59271 16.3959 5.05441 16.3861C5.51615 16.3764 5.83541 16.3568 6.01224 16.3275C6.18907 16.2982 6.29715 16.2787 6.33643 16.2689L6.39538 16.2543L6.46906 16.2396L6.54274 16.225L6.54863 16.2162L6.55747 16.2103L6.56634 16.2044L6.57221 16.1957L6.51326 16.181L6.45432 16.1664L6.39538 16.1517L6.33643 16.1371L6.27749 16.1224C6.2382 16.1126 6.16945 16.0931 6.07119 16.0638C5.97296 16.0345 5.70771 15.9271 5.27545 15.7415C4.84322 15.5559 4.49937 15.3752 4.24394 15.1994C3.98787 15.0231 3.74371 14.8303 3.51304 14.6222C3.28316 14.4112 3.0307 14.1397 2.75561 13.8076C2.48055 13.4756 2.23496 13.0898 2.01882 12.6503C1.8027 12.2108 1.64061 11.7908 1.53253 11.3903C1.42489 10.9922 1.35388 10.5852 1.32037 10.1743L1.26729 9.55903L1.29676 9.56489L1.32623 9.57368L1.3557 9.58833L1.38517 9.60298L1.41465 9.61763L1.44412 9.63229L1.90093 9.83739C2.20549 9.97414 2.5837 10.0913 3.03559 10.189C3.48751 10.2867 3.75765 10.3404 3.84607 10.3502L3.97869 10.3648H4.24394L4.23807 10.356L4.2292 10.3502L4.22036 10.3443L4.21447 10.3355L4.2086 10.3267L4.19973 10.3209L4.19089 10.315L4.18499 10.3062L4.15552 10.2916L4.12605 10.2769L4.12018 10.2681L4.11131 10.2623L4.10247 10.2564L4.09658 10.2476L4.06711 10.233L4.03763 10.2183L4.03177 10.2095C4.02588 10.2056 3.94138 10.1431 3.77828 10.022C3.61716 9.89892 3.4482 9.73973 3.27137 9.54438C3.09454 9.34903 2.91771 9.14393 2.74088 8.92907C2.56372 8.71371 2.40593 8.4833 2.26933 8.2405C2.13181 7.99634 1.9864 7.68572 1.83315 7.30873C1.68187 6.93368 1.56693 6.5557 1.48833 6.17479C1.40975 5.79388 1.36555 5.41787 1.3557 5.04671C1.34589 4.67556 1.3557 4.35815 1.38517 4.09444C1.41465 3.83073 1.47359 3.53283 1.562 3.20076C1.65042 2.8687 1.77815 2.51709 1.94514 2.14594L2.19565 1.58922L2.21038 1.54527L2.22512 1.50132L2.23399 1.49546L2.23986 1.48667L2.24575 1.47788L2.25459 1.47202L2.26346 1.47788L2.26933 1.48667L2.27522 1.49546L2.28406 1.50132L2.29293 1.50718L2.2988 1.51597L2.30469 1.52476L2.31354 1.53062L2.32827 1.55992L2.34301 1.58922L2.35188 1.59508L2.35774 1.60387L2.75561 2.04338C3.02086 2.33639 3.33523 2.66359 3.69871 3.02496C4.06221 3.38633 4.2636 3.57385 4.30288 3.58753C4.3422 3.60315 4.3913 3.64807 4.45024 3.72232C4.50918 3.7946 4.70567 3.96748 5.03968 4.24094C5.37371 4.51441 5.81086 4.83185 6.35117 5.19322C6.89151 5.55458 7.49076 5.91109 8.14895 6.2627C8.80717 6.61431 9.51449 6.93172 10.2709 7.21497C11.0274 7.49822 11.5579 7.68378 11.8624 7.77169C12.167 7.85959 12.6876 7.9719 13.4244 8.10864C14.1612 8.24539 14.7163 8.33329 15.0896 8.37235C15.4629 8.41141 15.7183 8.43388 15.8558 8.43974L16.0621 8.4456L16.0563 8.40165L16.0474 8.3577L15.9884 7.99144C15.9492 7.74728 15.9295 7.40543 15.9295 6.96591C15.9295 6.5264 15.9639 6.12109 16.0327 5.74993C16.1014 5.37878 16.2046 5.00276 16.3421 4.62185C16.4797 4.24094 16.6142 3.93522 16.7459 3.70474C16.8795 3.47619 17.0543 3.21542 17.2705 2.92241C17.4866 2.6294 17.7666 2.32663 18.1104 2.01408C18.4543 1.70153 18.8472 1.42317 19.2893 1.17901C19.7314 0.934848 20.1391 0.749257 20.5124 0.622296C20.8857 0.495336 21.2001 0.412298 21.4555 0.37324C21.7109 0.334182 21.8386 0.311708 21.8386 0.305848Z" fill="white"/>
</svg>
