<svg width="29" height="27" viewBox="0 0 29 27" fill="none" xmlns="http://www.w3.org/2000/svg">
<path d="M15.1261 26.3332L9.32293 26.1915C7.444 26.1421 5.5604 26.2407 3.71832 25.7291C0.916083 24.9646 0.717563 21.2166 0.509832 18.0726C0.223601 13.6527 0.33441 9.15247 0.874565 4.7694C1.1795 2.31004 2.37955 0.842519 4.23538 0.682825C10.5002 0.103272 16.8066 0.171955 23.0575 0.442337C23.7177 0.467124 24.3824 0.602599 25.0334 0.756806C28.2467 1.50892 28.325 5.75633 28.5333 9.33185C28.741 12.9443 28.6533 16.5752 28.2563 20.163C27.9378 23.1337 27.3283 25.6248 24.7563 25.8653C21.5338 26.1798 18.3853 26.4329 15.1537 26.3523C15.1538 26.3332 15.1353 26.3332 15.1261 26.3332ZM11.7144 18.8125C14.1428 16.9506 16.5249 15.1198 18.9395 13.2705C16.5065 11.4086 14.1289 9.57782 11.7144 7.72847V18.8125Z" fill="white"/>
</svg>
